ffmpeg version 3.4.8-0ubuntu0.2 Copyright (c) 2000-2020 the FFmpeg developers
  built with gcc 7 (Ubuntu 7.5.0-3ubuntu1~18.04)
  configuration: --prefix=/usr --extra-version=0ubuntu0.2 --toolchain=hardened --libdir=/usr/lib/x86_64-linux-gnu --incdir=/usr/include/x86_64-linux-gnu --enable-gpl --disable-stripping --enable-avresample --enable-avisynth --enable-gnutls --enable-ladspa --enable-libass --enable-libbluray --enable-libbs2b --enable-libcaca --enable-libcdio --enable-libflite --enable-libfontconfig --enable-libfreetype --enable-libfribidi --enable-libgme --enable-libgsm --enable-libmp3lame --enable-libmysofa --enable-libopenjpeg --enable-libopenmpt --enable-libopus --enable-libpulse --enable-librubberband --enable-librsvg --enable-libshine --enable-libsnappy --enable-libsoxr --enable-libspeex --enable-libssh --enable-libtheora --enable-libtwolame --enable-libvorbis --enable-libvpx --enable-libwavpack --enable-libwebp --enable-libx265 --enable-libxml2 --enable-libxvid --enable-libzmq --enable-libzvbi --enable-omx --enable-openal --enable-opengl --enable-sdl2 --enable-libdc1394 --enable-libdrm --enable-libiec61883 --enable-chromaprint --enable-frei0r --enable-libopencv --enable-libx264 --enable-shared
  libavutil      55. 78.100 / 55. 78.100
  libavcodec     57.107.100 / 57.107.100
  libavformat    57. 83.100 / 57. 83.100
  libavdevice    57. 10.100 / 57. 10.100
  libavfilter     6.107.100 /  6.107.100
  libavresample   3.  7.  0 /  3.  7.  0
  libswscale      4.  8.100 /  4.  8.100
  libswresample   2.  9.100 /  2.  9.100
  libpostproc    54.  7.100 / 54.  7.100
[rawvideo @ 0x55f185cffa20] Estimating duration from bitrate, this may be inaccurate
Input #0, rawvideo, from '../../SVC-Encoder-20220109T061506Z-001/SVC-Encoder/Dataset/RollerCoaster/6f_2x2/tile_yuv/f1_t1_480x480.yuv':
  Duration: 00:00:10.00, start: 0.000000, bitrate: 82944 kb/s
    Stream #0:0: Video: rawvideo (I420 / 0x30323449), yuv420p, 480x480, 82944 kb/s, 30 tbr, 30 tbn, 30 tbc
Stream mapping:
  Stream #0:0 -> #0:0 (rawvideo (native) -> h264 (libx264))
Press [q] to stop, [?] for help
[libx264 @ 0x55f185d0cc60] using cpu capabilities: MMX2 SSE2Fast LZCNT SSSE3 SSE4.2 AVX
[libx264 @ 0x55f185d0cc60] profile High, level 3.0
Output #0, rawvideo, to 'RollerCoaster_f1_t1_480x480_x264_QP_40.h264':
  Metadata:
    encoder         : Lavf57.83.100
    Stream #0:0: Video: h264 (libx264), yuv420p, 480x480, q=-1--1, 30 fps, 30 tbn, 30 tbc
    Metadata:
      encoder         : Lavc57.107.100 libx264
    Side data:
      cpb: bitrate max/min/avg: 0/0/0 buffer size: 0 vbv_delay: -1
frame=  132 fps=0.0 q=46.0 PSNR=Y:nan U:nan V:nan *:nan size=      27kB time=00:00:02.96 bitrate=  75.9kbits/s speed=5.91x    frame=  248 fps=247 q=46.0 PSNR=Y:nan U:nan V:nan *:nan size=      55kB time=00:00:06.83 bitrate=  66.3kbits/s speed= 6.8x    frame=  300 fps=225 q=46.0 LPSNR=Y:inf U:inf V:inf *:inf size=      80kB time=00:00:09.93 bitrate=  65.9kbits/s speed=7.45x    
video:80kB audio:0kB subtitle:0kB other streams:0kB global headers:0kB muxing overhead: 0.000000%
[libx264 @ 0x55f185d0cc60] frame I:2     Avg QP:38.06  size:  7054  PSNR Mean Y:31.97 U:41.04 V:44.15 Avg:33.54 Global:33.45
[libx264 @ 0x55f185d0cc60] frame P:76    Avg QP:40.70  size:   580  PSNR Mean Y:30.72 U:41.20 V:44.00 Avg:32.34 Global:32.32
[libx264 @ 0x55f185d0cc60] frame B:222   Avg QP:45.66  size:   106  PSNR Mean Y:30.53 U:41.09 V:43.96 Avg:32.14 Global:32.13
[libx264 @ 0x55f185d0cc60] consecutive B-frames:  1.3%  0.0%  0.0% 98.7%
[libx264 @ 0x55f185d0cc60] mb I  I16..4: 22.8% 70.5%  6.7%
[libx264 @ 0x55f185d0cc60] mb P  I16..4:  0.1%  0.1%  0.0%  P16..4: 24.3%  2.4%  0.5%  0.0%  0.0%    skip:72.6%
[libx264 @ 0x55f185d0cc60] mb B  I16..4:  0.0%  0.0%  0.0%  B16..8: 11.1%  0.0%  0.0%  direct: 0.0%  skip:88.9%  L0:32.3% L1:67.7% BI: 0.0%
[libx264 @ 0x55f185d0cc60] 8x8 transform intra:68.8% inter:83.9%
[libx264 @ 0x55f185d0cc60] coded y,uvDC,uvAC intra: 48.6% 41.9% 3.7% inter: 1.0% 0.5% 0.0%
[libx264 @ 0x55f185d0cc60] i16 v,h,dc,p: 15% 38% 24% 23%
[libx264 @ 0x55f185d0cc60] i8 v,h,dc,ddl,ddr,vr,hd,vl,hu:  5% 29% 30%  4%  5%  3%  7%  9%  8%
[libx264 @ 0x55f185d0cc60] i4 v,h,dc,ddl,ddr,vr,hd,vl,hu: 14% 24% 15%  8%  7%  5%  8% 13%  6%
[libx264 @ 0x55f185d0cc60] i8c dc,h,v,p: 73% 15%  7%  5%
[libx264 @ 0x55f185d0cc60] Weighted P-Frames: Y:0.0% UV:0.0%
[libx264 @ 0x55f185d0cc60] ref P L0: 68.3% 12.2% 14.6%  4.8%
[libx264 @ 0x55f185d0cc60] ref B L0: 69.8% 27.1%  3.1%
[libx264 @ 0x55f185d0cc60] ref B L1: 75.5% 24.5%
[libx264 @ 0x55f185d0cc60] PSNR Mean Y:30.584 U:41.117 V:43.968 Avg:32.201 Global:32.184 kb/s:65.42
